# xmcd
#
# Track frame offsets:
#	150
#	22690
#	41615
#	58695
#	75925
#	94580
#	112337
#	130840
#	150060
#	168900
#
# Disc length: 2442 seconds
#
# Revision: 1
# Processed by: cddbd v1.5.2PL0 Copyright (c) Steve Scherf et al.
# Submitted via: EasyCDDAExtractor 12.0.1.1
#
DISCID=6609880a
DTITLE=Alvaro Torres - Reencuentro
DYEAR=1995
DGENRE=Latin
TTITLE0=Reencuentro (Con La Participacion Especial De Barrio Boyzz)
TTITLE1=Al Acecho
TTITLE2=Tu Te Lo Pierdes
TTITLE3=Chiquita Mia
TTITLE4=Mi Otro Yo
TTITLE5=Se Termino
TTITLE6=Regresare A La Cama
TTITLE7=¡Ay Muñeca!
TTITLE8=¡Por Ti, Todo!
TTITLE9=Voy A Buscar A Alguien
EXTD=
EXTT0=
EXTT1=
EXTT2=
EXTT3=
EXTT4=
EXTT5=
EXTT6=
EXTT7=
EXTT8=
EXTT9=
PLAYORDER=
